<svg width="929" height="227" viewBox="0 0 929 227" fill="none" xmlns="http://www.w3.org/2000/svg">
<path d="M601.187 739.315L-774.544 1.8985M766.537 430.836L-609.194 -306.58M624.808 695.247L-750.922 -42.1699M790.159 386.768L-585.572 -350.649M648.43 651.178L-727.301 -86.2384M813.78 342.699L-561.951 -394.717M672.051 607.11L-703.68 -130.307M837.402 298.631L-538.329 -438.786M695.673 563.042L-680.058 -174.375M861.023 254.563L-514.708 -482.854M719.294 518.973L-656.437 -218.444M884.645 210.494L-491.086 -526.922M742.916 474.905L-632.815 -262.512M908.266 166.426L-467.465 -570.991M603.549 734.908L-772.182 -2.50836M768.899 426.43L-606.831 -310.987M627.171 690.84L-748.56 -46.5768M792.521 382.361L-583.21 -355.056M650.792 646.772L-724.939 -90.6453M816.142 338.293L-559.589 -399.124M674.414 602.703L-701.317 -134.714M839.764 294.224L-535.967 -443.193M698.035 558.635L-677.696 -178.782M863.385 250.156L-512.346 -487.261M721.656 514.566L-654.074 -222.85M887.007 206.087L-488.724 -531.329M745.278 470.498L-630.453 -266.919M910.628 162.019L-465.103 -575.398M605.911 730.502L-769.82 -6.91528M771.262 422.023L-604.469 -315.394M629.533 686.433L-746.198 -50.9836M794.883 377.954L-580.848 -359.463M653.154 642.365L-722.577 -95.052M818.505 333.886L-557.226 -403.531M676.776 598.296L-698.955 -139.12M842.126 289.818L-533.605 -447.599M700.397 554.228L-675.334 -183.189M865.748 245.749L-509.983 -491.668M724.019 510.16L-651.712 -227.257M889.369 201.681L-486.362 -535.736M747.64 466.091L-628.091 -271.326M912.99 157.612L-462.74 -579.805M606.581 725.188L-769.15 -12.2291M771.932 416.709L-603.799 -320.708M630.203 681.119L-745.528 -56.2975M795.553 372.64L-580.178 -364.776M653.824 637.051L-721.907 -100.366M819.174 328.572L-556.556 -408.845M677.446 592.983L-698.285 -144.434M842.796 284.504L-532.935 -452.913M701.067 548.914L-674.664 -188.503M866.418 240.435L-509.313 -496.982M724.689 504.846L-651.042 -232.571M890.039 196.367L-485.692 -541.05M748.31 460.777L-627.421 -276.64M913.66 152.298L-462.07 -585.118M608.943 720.781L-766.788 -16.6359M774.294 412.302L-601.437 -325.115M632.565 676.713L-743.166 -60.7043M797.915 368.234L-577.816 -369.183M656.186 632.644L-719.545 -104.773M821.537 324.165L-554.194 -413.252M679.808 588.576L-695.923 -148.841M845.158 280.097L-530.573 -457.32M703.429 544.507L-672.302 -192.91M868.78 236.028L-506.951 -501.388M727.051 500.439L-648.68 -236.978M892.401 191.96L-483.33 -545.457M750.672 456.37L-625.059 -281.046M916.023 147.891L-459.708 -589.525M611.306 716.374L-764.425 -21.0428M776.656 407.895L-599.075 -329.522M634.927 672.306L-740.804 -65.1112M800.277 363.827L-575.454 -373.59M658.548 628.237L-717.182 -109.18M823.899 319.758L-551.832 -417.659M682.17 584.169L-693.561 -153.248M847.52 275.69L-528.211 -461.727M705.791 540.1L-669.939 -197.316M871.142 231.621L-504.589 -505.795M729.413 496.032L-646.318 -241.385M894.763 187.553L-480.968 -549.864M753.034 451.964L-622.697 -285.453M918.385 143.485L-457.346 -593.932M613.668 711.967L-762.063 -25.4496M779.018 403.488L-596.713 -333.929M637.289 667.899L-738.442 -69.5181M802.64 359.42L-573.091 -377.997M660.911 623.83L-714.82 -113.586M826.261 315.352L-549.47 -422.065M684.532 579.762L-691.199 -157.655M849.883 271.283L-525.848 -466.134M708.154 535.693L-667.577 -201.723M873.504 227.215L-502.227 -510.202M731.775 491.625L-643.956 -245.792M897.125 183.146L-478.605 -554.271M755.397 447.557L-620.334 -289.86M920.747 139.078L-454.984 -598.339M618.392 703.154L-757.339 -34.2632M783.742 394.675L-591.989 -342.742M642.014 659.085L-733.717 -78.3317M807.364 350.606L-568.367 -386.811M665.635 615.017L-710.096 -122.4M830.985 306.538L-544.746 -430.879M689.256 570.948L-686.474 -166.469M854.607 262.469L-521.124 -474.947M712.878 526.88L-662.853 -210.537M878.228 218.401L-497.503 -519.016M736.499 482.811L-639.232 -254.605M901.85 174.333L-473.881 -563.084M760.121 438.743L-615.61 -298.674M925.471 130.264L-450.26 -607.153M620.754 698.747L-754.977 -38.6701M786.104 390.268L-589.626 -347.149M644.376 654.678L-731.355 -82.7386M809.726 346.199L-566.005 -391.218M667.997 610.61L-707.734 -126.807M833.347 302.131L-542.383 -435.286M691.619 566.542L-684.112 -170.875M856.969 258.063L-518.762 -479.354M715.24 522.473L-660.491 -214.944M880.59 213.994L-495.141 -523.423M738.861 478.405L-636.869 -259.012M904.212 169.926L-471.519 -567.491M762.483 434.336L-613.248 -303.081M927.833 125.857L-447.898 -611.56M617.722 708.467L-758.009 -28.9494M783.072 399.988L-592.659 -337.428M641.343 664.399L-734.387 -73.0179M806.694 355.92L-569.037 -381.497M664.965 620.331L-710.766 -117.086M830.315 311.852L-545.416 -425.565M688.586 576.262L-687.144 -161.155M853.937 267.783L-521.794 -469.634M712.208 532.194L-663.523 -205.223M877.558 223.715L-498.173 -513.702M735.829 488.125L-639.901 -249.291M901.18 179.646L-474.551 -557.77M759.451 444.057L-616.28 -293.36M924.801 135.578L-450.93 -601.839" stroke="white" stroke-opacity="0.5"/>
</svg>
